<?xml version="1.0" encoding="utf-8"?>
<!-- Generator: Adobe Illustrator 16.0.0, SVG Export Plug-In . SVG Version: 6.00 Build 0)  -->
<svg version="1.2" baseProfile="tiny" id="Ebene_1" xmlns="http://www.w3.org/2000/svg" xmlns:xlink="http://www.w3.org/1999/xlink"
	 x="0px" y="0px" width="1500px" height="286px" viewBox="0 0 1500 286" overflow="scroll" xml:space="preserve">
<g>
	<path fill="#6D6D6D" d="M1193.37,170.454c-5.72,0-10.583,1.896-14.558,5.649c-3.955,3.778-5.945,8.412-5.945,13.818
		c0,5.453,1.99,10.063,5.945,13.836c3.975,3.743,8.838,5.646,14.558,5.646c5.727,0,10.583-1.903,14.563-5.646
		c3.956-3.772,5.939-8.383,5.939-13.836c0-5.406-1.983-10.041-5.939-13.818C1203.953,172.35,1199.097,170.454,1193.37,170.454
		L1193.37,170.454z"/>
	<path fill="#6D6D6D" d="M1482.418,84.913c-3.111-2.932-6.867-4.399-11.286-4.399h-276.931c-7.066,0-13.656,1.541-19.826,4.551
		c-6.185,3.023-11.132,6.957-14.887,11.753l-52.401,67.042v-52.235c0-8.715-2.558-16.169-7.64-22.258
		c-5.063-6.101-12-9.162-20.818-9.162c-5.283,0-10.139,1.169-14.539,3.599c-4.418,2.401-8.174,5.669-11.246,9.828h-0.348
		l-75.707,85.791c-1.121,1.085-2.479,2.232-4.143,3.432c-1.654,1.192-3.368,1.776-5.113,1.776c-1.783,0-3.459-0.584-5.135-1.776
		c-1.655-1.2-3.04-2.346-4.121-3.432l-76.074-85.791c-3.535-3.731-7.402-6.883-11.557-9.511c-4.199-2.604-8.947-3.917-14.229-3.917
		c-8.838,0-15.756,3.061-20.838,9.162c-5.057,6.089-7.62,13.543-7.62,22.258v95.609c0,4.375,1.546,8.071,4.657,11.141
		c3.092,3.067,6.814,4.586,11.227,4.586c4.4,0,8.174-1.519,11.247-4.586c3.091-3.069,4.618-6.766,4.618-11.141v-71.388
		c0-8.926,0.555-13.408,1.662-13.408c1.102,0,4.174,2.926,9.275,8.857l72.756,81.832c2.835,3.285,6.385,5.73,10.564,7.386
		c4.18,1.638,8.69,2.447,13.566,2.447c4.824,0,9.352-0.81,13.546-2.447c4.2-1.656,7.711-4.101,10.603-7.386l72.725-81.832
		c5.295-5.931,8.387-8.857,9.256-8.857c1.121,0,1.674,4.482,1.674,13.408v71.388c0,2.448,0.535,4.665,1.469,6.699
		c0.774,1.964,1.971,3.819,3.646,5.383c3.093,2.945,6.828,4.395,11.266,4.395c4.826,0,8.91-1.835,12.221-5.636l77.709-97.984
		c1.327-1.66,3.131-3.523,5.45-5.498c2.319-1.994,4.696-2.992,7.104-2.992c2.428,0,4.805,0.998,7.123,2.992
		c2.301,1.974,4.233,3.837,5.76,5.498l77.104,97.699c3.053,3.957,7.253,5.921,12.515,5.921c4.42,0,8.168-1.449,11.266-4.395
		c3.093-2.904,4.639-6.464,4.639-10.648c0-2.098-0.463-4.053-1.326-5.824c-0.902-1.786-1.99-3.406-3.313-4.851l-68.729-87.327
		h112.879c-3.529,5.863-6.184,12.094-7.929,18.687c-1.784,6.612-2.635,13.147-2.635,19.645v59.67c0,4.184,1.514,7.744,4.618,10.648
		c3.078,2.945,6.815,4.395,11.228,4.395c4.419,0,8.136-1.449,11.247-4.395c3.111-2.904,4.638-6.464,4.638-10.648v-59.67
		c0-3.553,0.444-7.543,1.327-11.918c0.851-4.417,2.525-8.512,4.953-12.278c2.429-3.781,5.797-6.957,10.088-9.607
		c4.283-2.596,9.752-4.112,16.361-4.528h66.463c3.975-0.432,7.401-2.069,10.255-4.858c2.866-2.849,4.283-6.24,4.283-10.224
		C1487.017,91.424,1485.49,87.862,1482.418,84.913L1482.418,84.913z"/>
	<path fill="#6D6D6D" d="M464.004,92.762c-4.084-3.773-8.798-6.75-14.209-8.941c-5.411-2.199-11.188-3.308-17.373-3.308H254.6
		h-7.762H231.52c-4.489,0-8.283,1.467-11.389,4.399c-3.129,2.939-4.695,6.487-4.695,10.661c0,3.976,1.566,7.491,4.695,10.528
		c3.105,3.037,6.899,4.563,11.389,4.563h15.318l0,0h186.924c3.317,0,6.223,1.151,8.767,3.451c2.52,2.306,3.788,5.039,3.788,8.178
		c0,3.327-1.269,6.124-3.788,8.306c-2.544,2.198-5.449,3.303-8.767,3.303H258.175c-5.746,0-10.989,0.994-15.718,2.992
		c-4.754,1.997-8.928,4.702-12.555,8.163c-3.646,3.456-6.44,7.532-8.432,12.258c-1.178,2.718-1.932,5.577-2.409,8.512l-55.075-69.91
		c-3.748-4.841-8.553-8.6-14.537-11.324c-5.945-2.715-12.239-4.081-18.848-4.081c-7.066,0-13.675,1.541-19.84,4.551
		c-6.151,3.023-11.118,6.957-14.873,11.753L15.531,199.534c-2.209,2.296-3.317,5.361-3.317,9.134c0,4.184,1.533,7.744,4.625,10.648
		c3.104,2.945,6.847,4.395,11.24,4.395c4.863,0,8.947-1.835,12.227-5.636l77.729-97.984c1.319-1.66,3.163-3.523,5.462-5.498
		c2.3-1.994,4.696-2.992,7.105-2.992s4.766,0.998,7.104,2.992c2.3,1.974,4.232,3.837,5.798,5.498l77.045,97.699
		c3.073,3.957,7.273,5.921,12.576,5.921c0.218,0,0.404-0.022,0.623-0.022c0.199,0,0.426,0.022,0.625,0.022
		c4.18,0,7.879-1.449,11.061-4.395c3.207-2.904,4.785-6.464,4.785-10.648v-12.271v-3.144v-17.569c0-3.156,0.998-5.76,3.002-7.854
		c1.99-2.104,4.381-3.332,7.253-3.778h171.948c6.185,0,11.962-1.109,17.373-3.313c5.411-2.182,10.125-5.159,14.209-8.936
		c4.104-3.755,7.273-8.146,9.592-13.197c2.338-5.016,3.479-10.446,3.479-16.313c0-5.872-1.141-11.329-3.479-16.321
		C471.277,100.935,468.107,96.522,464.004,92.762L464.004,92.762z"/>
	<path fill="#6D6D6D" d="M130.602,170.338c-5.727,0-10.584,1.905-14.558,5.636c-3.955,3.778-5.927,8.413-5.927,13.851
		c0,5.435,1.972,10.055,5.927,13.804c3.974,3.77,8.831,5.646,14.558,5.646c5.746,0,10.583-1.876,14.538-5.646
		c3.981-3.749,5.946-8.369,5.946-13.804c0-5.438-1.965-10.073-5.946-13.851C141.185,172.243,136.348,170.338,130.602,170.338
		L130.602,170.338z"/>
	<path fill="#6D6D6D" d="M490.988,214.715c0,3.957,1.507,7.335,4.528,10.096c2.983,2.752,6.628,4.15,10.911,4.15
		c4.289,0,7.936-1.398,10.938-4.15c2.982-2.76,4.51-6.139,4.51-10.096v-76.25h-30.887V214.715L490.988,214.715z"/>
	<path fill="#6D6D6D" d="M522.668,93.604c-0.227-3.805-1.695-7.086-4.549-9.783c-3.111-2.926-6.828-4.395-11.247-4.395
		c-4.418,0-8.174,1.469-11.227,4.395c-3.132,2.928-4.657,6.48-4.657,10.675v29.634h31.749V93.604H522.668L522.668,93.604z"/>
	<path fill="#6D6D6D" d="M674.401,239.701c-53.889,0-97.606-41.505-97.606-92.72c0-51.177,43.718-92.683,97.606-92.683
		c53.896,0,97.589,41.505,97.589,92.683C771.99,198.196,728.297,239.701,674.401,239.701L674.401,239.701z M674.401,23.76
		c-71.654,0-129.743,55.184-129.743,123.222c0,68.073,58.089,123.236,129.743,123.236c71.655,0,129.726-55.163,129.726-123.236
		C804.127,78.944,746.057,23.76,674.401,23.76L674.401,23.76z"/>
</g>
</svg>
