<?xml version="1.0" encoding="utf-8"?>
<!-- Generator: Adobe Illustrator 16.0.0, SVG Export Plug-In . SVG Version: 6.00 Build 0)  -->
<svg version="1.2" baseProfile="tiny" id="Ebene_1" xmlns="http://www.w3.org/2000/svg" xmlns:xlink="http://www.w3.org/1999/xlink"
	 x="0px" y="0px" width="200px" height="200px" viewBox="0 0 200 200" overflow="scroll" xml:space="preserve">
<g>
	<path fill="#ffffff" d="M26.618,149.233c-2.629,3.058-5.956,4.622-9.894,4.622c-3.62,0-6.616-1.174-9.123-3.619
		c-2.52-2.349-3.767-5.234-3.767-8.635c0-3.081,0.93-5.552,2.667-7.435l65.28-83.398c3.033-3.883,7.032-7.038,12.095-9.508
		c5.002-2.495,10.383-3.761,16.106-3.761c5.332,0,10.444,1.144,15.287,3.333c4.866,2.201,8.756,5.308,11.813,9.166l65.281,82.897
		c1.076,1.223,1.98,2.543,2.69,3.986c0.684,1.442,1.076,3.033,1.076,4.72c0,3.4-1.297,6.286-3.767,8.635
		c-2.544,2.445-5.552,3.619-9.123,3.619c-4.306,0-7.705-1.59-10.225-4.866l-62.589-79.351c-1.224-1.333-2.813-2.782-4.685-4.396
		c-1.883-1.639-3.803-2.507-5.76-2.507c-1.981,0-3.914,0.868-5.76,2.507c-1.92,1.614-3.387,3.063-4.427,4.396L26.618,149.233z"/>
	<path fill="#ffffff" d="M85.331,128.786c0-3.89,1.419-7.167,4.231-9.905c2.886-2.661,6.286-3.994,10.419-3.994
		c4.097,0,7.582,1.333,10.42,3.994c2.8,2.738,4.194,6.016,4.194,9.905c0,3.889-1.395,7.215-4.194,9.906
		c-2.838,2.665-6.323,4.035-10.42,4.035c-4.134,0-7.534-1.37-10.419-4.035C86.75,136.001,85.331,132.675,85.331,128.786"/>
</g>
</svg>
